<svg xmlns="http://www.w3.org/2000/svg" version="1.1" xmlns:xlink="http://www.w3.org/1999/xlink" xmlns:svgjs="http://svgjs.dev/svgjs" width="1500" height="250" viewBox="0 0 1500 250"><g transform="matrix(1,0,0,1,-0.9090909090909918,-0.0657856810317412)"><svg viewBox="0 0 396 66" data-background-color="#ffffff" preserveAspectRatio="xMidYMid meet" height="250" width="1500" xmlns="http://www.w3.org/2000/svg" xmlns:xlink="http://www.w3.org/1999/xlink"><g id="tight-bounds" transform="matrix(1,0,0,1,0.2400000000000091,0.01736741979237877)"><svg viewBox="0 0 395.52 65.96520369362838" height="65.96520369362838" width="395.52"><g><svg viewBox="0 0 395.52 65.96520369362838" height="65.96520369362838" width="395.52"><g><svg viewBox="0 0 395.52 65.96520369362838" height="65.96520369362838" width="395.52"><g id="textblocktransform"><svg viewBox="0 0 395.52 65.96520369362838" height="65.96520369362838" width="395.52" id="textblock"><g><svg viewBox="0 0 395.52 65.96520369362838" height="65.96520369362838" width="395.52"><g transform="matrix(1,0,0,1,0,0)"><svg width="395.52" viewBox="1.49 -35.21 214.07 35.71" height="65.96520369362838" data-palette-color="#111111"><path d="M1.49-8.96L1.49-8.96Q1.49-10.4 2.34-11.02 3.2-11.65 4-11.65L4-11.65 6.91-11.65Q9.11-11.65 10.25-9.25 11.4-6.86 15.41-6.86L15.41-6.86 23.95-6.69Q28.25-6.69 28.25-9.5L28.25-9.5Q28.25-11.62 23-12.84L23-12.84Q20.65-13.4 17.82-13.95 14.99-14.5 12.19-15.33 9.4-16.16 7.06-17.29 4.71-18.41 3.26-20.37 1.81-22.34 1.81-25L1.81-25Q1.81-29.91 5.3-32.56 8.79-35.21 17.31-35.21L17.31-35.21 23.51-35.06Q28.52-35.06 32.53-32.48 36.55-29.91 36.55-26.05L36.55-26.05Q36.55-24.61 35.69-23.97 34.84-23.34 34.06-23.34L34.06-23.34 31.15-23.34Q28.96-23.34 27.81-25.74 26.66-28.15 22.66-28.15L22.66-28.15 15.31-28.3Q11.01-28.3 11.01-25.49L11.01-25.49Q11.01-23.95 13.73-22.97 16.46-22 20.32-21.25 24.19-20.51 28.1-19.46 32.01-18.41 34.73-16 37.45-13.6 37.45-10.01L37.45-10.01Q37.45-5.1 33.95-2.45 30.44 0.2 21.95 0.2L21.95 0.2 14.55 0.05Q9.55 0.05 5.52-2.53 1.49-5.1 1.49-8.96ZM44.19-3.08Q40.43-6.64 40.43-13.34 40.43-20.04 44.21-23.65 48-27.25 54.71-27.25 61.42-27.25 65.18-23.74 68.94-20.24 68.94-13.7L68.94-13.7 68.94-12.3Q68.94-11.65 68.52-11.22 68.09-10.79 67.43-10.79L67.43-10.79 49.05-10.79Q49.29-7.79 50.77-6.42 52.24-5.05 55.49-5.05 58.74-5.05 59.93-6.52 61.13-7.98 62.89-8.01L62.89-8.01 66.53-8.01Q67.19-8.01 67.61-7.58 68.04-7.15 68.04-6.49L68.04-6.49Q68.04 0.51 54.69 0.49L54.69 0.49Q47.95 0.49 44.19-3.08ZM49-15.94L49-15.94 60.35-15.94Q60.1-21.7 54.7-21.7 49.29-21.7 49-15.94ZM75.15-1.76Q71.92-4 71.92-8.11 71.92-12.21 75.15-14.4 78.39-16.6 83.49-16.6L83.49-16.6 91.57-16.6Q91.57-19.46 90.38-20.58 89.18-21.7 86.19-21.7 83.2-21.7 81.99-20.23 80.78-18.75 79.02-18.75L79.02-18.75 75.39-18.75Q74.73-18.75 74.3-19.18 73.87-19.6 73.87-20.24L73.87-20.24Q73.87-27.25 87.18-27.25L87.18-27.25Q92.99-27.25 96.5-24.65 100.02-22.05 100.02-16.6L100.02-16.6 100.02-1.49Q100.02-0.83 99.6-0.42 99.19 0 98.53 0L98.53 0 93.82 0Q93.16 0 92.74-0.43 92.33-0.85 92.33-1.49L92.33-1.49 92.33-2.25Q88.47 0.51 83.43 0.5 78.39 0.49 75.15-1.76ZM84.08-11.06Q82.37-11.06 81.38-10.23 80.39-9.4 80.39-8.08 80.39-6.76 81.42-5.91 82.44-5.05 84.32-5.05L84.32-5.05Q88.08-5.05 91.57-7.25L91.57-7.25 91.57-11.06 84.08-11.06ZM104.02-13.89L104.02-13.89 104.02-16.8Q104.02-17.46 104.45-17.88 104.88-18.31 105.51-18.31L105.51-18.31 123.92-18.31Q124.58-18.31 125-17.88 125.43-17.46 125.43-16.8L125.43-16.8 125.43-13.89Q125.43-13.23 125-12.82 124.58-12.4 123.92-12.4L123.92-12.4 105.51-12.4Q104.85-12.4 104.44-12.82 104.02-13.23 104.02-13.89ZM129.9-2.34L129.9-2.34 129.9-32.64Q129.9-33.64 130.56-34.33 131.22-35.01 132.17-35.01L132.17-35.01 142.1-35.01Q143.06-35.01 143.91-34.33 144.77-33.64 145.06-32.69L145.06-32.69 152.26-11.84 159.46-32.69Q159.76-33.64 160.61-34.33 161.46-35.01 162.42-35.01L162.42-35.01 172.35-35.01Q173.31-35.01 173.95-34.33 174.6-33.64 174.6-32.64L174.6-32.64 174.6-2.34Q174.6-1.34 173.93-0.67 173.26 0 172.3 0L172.3 0 167.91 0Q166.96 0 166.29-0.67 165.62-1.34 165.62-2.34L165.62-2.34 165.62-26.2 157-2.2Q156.66-1.29 155.8-0.65 154.95 0 153.99 0L153.99 0 150.5 0Q149.55 0 148.71-0.65 147.87-1.29 147.5-2.2L147.5-2.2 138.91-26.2 138.91-2.34Q138.91-1.34 138.23-0.67 137.56 0 136.61 0L136.61 0 132.22 0Q131.26 0 130.58-0.67 129.9-1.34 129.9-2.34ZM179.6-8.96L179.6-8.96Q179.6-10.4 180.46-11.02 181.31-11.65 182.12-11.65L182.12-11.65 185.02-11.65Q187.22-11.65 188.37-9.25 189.51-6.86 193.52-6.86L193.52-6.86 202.06-6.69Q206.36-6.69 206.36-9.5L206.36-9.5Q206.36-11.62 201.11-12.84L201.11-12.84Q198.77-13.4 195.93-13.95 193.1-14.5 190.31-15.33 187.51-16.16 185.17-17.29 182.82-18.41 181.37-20.37 179.92-22.34 179.92-25L179.92-25Q179.92-29.91 183.41-32.56 186.9-35.21 195.42-35.21L195.42-35.21 201.62-35.06Q206.63-35.06 210.64-32.48 214.66-29.91 214.66-26.05L214.66-26.05Q214.66-24.61 213.81-23.97 212.95-23.34 212.17-23.34L212.17-23.34 209.26-23.34Q207.07-23.34 205.92-25.74 204.77-28.15 200.77-28.15L200.77-28.15 193.42-28.3Q189.12-28.3 189.12-25.49L189.12-25.49Q189.12-23.95 191.85-22.97 194.57-22 198.44-21.25 202.31-20.51 206.21-19.46 210.12-18.41 212.84-16 215.56-13.6 215.56-10.01L215.56-10.01Q215.56-5.1 212.06-2.45 208.56 0.2 200.06 0.2L200.06 0.2 192.66 0.05Q187.66 0.05 183.63-2.53 179.6-5.1 179.6-8.96Z" opacity="1" transform="matrix(1,0,0,1,0,0)" fill="#111111" class="wordmark-text-0" data-fill-palette-color="primary" id="text-0"></path></svg></g></svg></g></svg></g></svg></g></svg></g><defs></defs></svg><rect width="395.52" height="65.96520369362838" fill="none" stroke="none" visibility="hidden"></rect></g></svg></g></svg>